# File created by Blade
# Date/Time:  Tue Apr 07 20:45:22 2015
# Frame Rate: 120.000 fps
#------------------------------------------------------
:FULLY-SPECIFIED
:DEGREES
368
root 2.793666 33.541562 -4.107253 3.326593 -16.353267 -40.090719
Spine 15.878212 21.967725 33.025411
Head -5.447443 -9.550308 14.422883
LeftShoulder -23.825020 38.981578 12.163612
LeftArm 57.648195 -52.914848 -91.599764
LeftForeArm 6.244229 0.000000 21.150043
LeftHand 5.971993 0.000000 12.758842
LeftHandThumb1 -26.253704 0.000000 33.147579
RightShoulder -8.559909 35.248562 -31.078842
RightArm 52.503598 80.043017 85.946766
RightForeArm 45.149622 -0.000000 54.128879
RightHand 0.952440 -0.000000 26.445384
RightHandThumb1 -24.326973 -0.000000 -32.862282
LeftUpLeg -5.658161 -3.464540 33.570685
LeftLeg 33.226905 -0.000000 -0.000000
LeftFoot -23.053758 19.873647 -23.632658
LeftToeBase -12.285699 -0.000000 0.000000
RightUpLeg -140.029258 -45.846014 20.976519
RightLeg 7.044761 -0.000000 -0.000000
RightFoot 41.089338 -13.163841 9.785397
RightToeBase 12.251686 -0.000000 -0.000000
369
root 2.799345 33.554580 -4.111519 3.544890 -16.268487 -40.241020
Spine 15.647318 22.035965 33.166735
Head -5.458215 -9.531579 14.300163
LeftShoulder -23.827326 38.953517 12.221068
LeftArm 58.042175 -53.335915 -92.041127
LeftForeArm 6.458944 0.000000 20.895745
LeftHand 6.137141 0.000000 12.380521
LeftHandThumb1 -26.253704 0.000000 33.147579
RightShoulder -8.731021 35.410722 -31.299726
RightArm 53.188543 80.072240 86.470097
RightForeArm 44.562094 -0.000000 54.564694
RightHand 0.881004 -0.000000 26.612665
RightHandThumb1 -24.326973 -0.000000 -32.862282
LeftUpLeg -5.814807 -3.346410 33.756131
LeftLeg 33.135444 -0.000000 -0.000000
LeftFoot -23.055802 19.737339 -23.775308
LeftToeBase -12.216066 -0.000000 0.000000
RightUpLeg -139.911995 -46.239257 20.904295
RightLeg 6.376374 -0.000000 -0.000000
RightFoot 41.157097 -12.902909 9.615351
RightToeBase 11.889767 -0.000000 -0.000000
370
root 2.807223 33.567085 -4.119305 3.767792 -16.209408 -40.402035
Spine 15.449955 22.105117 33.328063
Head -5.508281 -9.495249 14.163190
LeftShoulder -23.848384 38.906348 12.252310
LeftArm 58.321275 -53.693791 -92.290812
LeftForeArm 6.577757 -0.000000 20.570811
LeftHand 6.009057 -0.000000 12.457854
LeftHandThumb1 -26.253704 0.000000 33.147579
RightShoulder -8.875774 35.505975 -31.514191
RightArm 54.047577 80.091159 87.160687
RightForeArm 44.002765 -0.000000 54.962382
RightHand 0.852989 -0.000000 26.613481
RightHandThumb1 -24.326973 -0.000000 -32.862282
LeftUpLeg -5.985268 -3.197390 33.946738
LeftLeg 33.095117 -0.000000 -0.000000
LeftFoot -23.056235 19.652398 -23.777647
LeftToeBase -11.892651 -0.000000 0.000000
RightUpLeg -139.793907 -46.554171 20.884088
RightLeg 5.682475 -0.000000 -0.000000
RightFoot 41.222767 -12.690814 9.478389
RightToeBase 11.794250 -0.000000 -0.000000
371
root 2.817630 33.578527 -4.131352 4.014602 -16.165347 -40.546136
Spine 15.251748 22.207976 33.466661
Head -5.584820 -9.432816 14.026666
LeftShoulder -23.887017 38.848282 12.265451
LeftArm 58.478709 -53.968552 -92.361698
LeftForeArm 6.457524 -0.000000 20.282782
LeftHand 5.862921 -0.000000 12.520726
LeftHandThumb1 -26.253704 0.000000 33.147579
RightShoulder -9.031426 35.485489 -31.727990
RightArm 55.842099 80.113944 88.808485
RightForeArm 43.403741 -0.000000 55.327025
RightHand 0.739858 -0.000000 26.817480
RightHandThumb1 -24.326973 -0.000000 -32.862282
LeftUpLeg -6.211192 -2.956462 34.150373
LeftLeg 33.109389 -0.000000 -0.000000
LeftFoot -23.005379 19.317301 -23.978320
LeftToeBase -11.814757 -0.000000 0.000000
RightUpLeg -138.905171 -47.316470 20.146992
RightLeg 4.446319 -0.000000 -0.000000
RightFoot 41.388882 -13.347872 9.426823
RightToeBase 11.799017 -0.000000 -0.000000
372
root 2.823490 33.593346 -4.140516 4.229619 -16.092873 -40.755686
Spine 15.084926 22.250680 33.683107
Head -5.631781 -9.340165 13.874549
LeftShoulder -23.994419 38.843857 12.193953
LeftArm 58.853059 -54.245539 -92.579258
LeftForeArm 6.356815 -0.000000 19.938811
LeftHand 5.889574 0.000000 12.711304
LeftHandThumb1 -26.253704 0.000000 33.147579
RightShoulder -9.113729 35.382748 -31.909838
RightArm 57.531299 80.159419 90.341562
RightForeArm 42.861313 -0.000000 55.688237
RightHand 0.717250 -0.000000 27.024793
RightHandThumb1 -24.326973 -0.000000 -32.862282
LeftUpLeg -6.392680 -2.798214 34.417878
LeftLeg 33.091660 -0.000000 -0.000000
LeftFoot -22.958137 19.017121 -24.272029
LeftToeBase -11.957179 -0.000000 0.000000
RightUpLeg -138.493315 -47.771152 19.938171
RightLeg 3.589494 -0.000000 -0.000000
RightFoot 41.469368 -13.398633 9.278921
RightToeBase 11.405416 -0.000000 -0.000000
373
root 2.830572 33.607052 -4.149105 4.435562 -16.014298 -40.927957
Spine 14.920785 22.300905 33.857165
Head -5.693064 -9.259259 13.719720
LeftShoulder -24.089036 38.804817 12.137393
LeftArm 59.202558 -54.518065 -92.782319
LeftForeArm 6.282479 -0.000000 19.660420
LeftHand 5.797738 -0.000000 12.677002
LeftHandThumb1 -26.253704 0.000000 33.147579
RightShoulder -9.227290 35.305787 -32.092634
RightArm 58.653995 80.147342 91.323094
RightForeArm 42.574771 -0.000000 56.041622
RightHand 0.707062 -0.000000 27.211170
RightHandThumb1 -24.326973 -0.000000 -32.862282
LeftUpLeg -6.585792 -2.649745 34.642233
LeftLeg 33.101409 -0.000000 -0.000000
LeftFoot -22.926798 18.822737 -24.341756
LeftToeBase -11.628472 -0.000000 0.000000
RightUpLeg -138.350001 -48.071821 19.925555
RightLeg 2.961868 -0.000000 -0.000000
RightFoot 41.348053 -13.223525 9.226679
RightToeBase 11.520617 -0.000000 -0.000000
374
root 2.838234 33.619158 -4.170193 4.731966 -15.988711 -41.100167
Spine 14.709747 22.448128 33.987758
Head -5.764922 -9.222359 13.620366
LeftShoulder -24.149213 38.768700 12.139038
LeftArm 59.590645 -54.803987 -93.092852
LeftForeArm 6.227866 -0.000000 19.430083
LeftHand 5.682082 -0.000000 12.648745
LeftHandThumb1 -26.253704 0.000000 33.147579
RightShoulder -9.306779 35.219647 -32.243685
RightArm 59.858398 80.153633 92.406015
RightForeArm 42.334594 -0.000000 56.394266
RightHand 0.651988 -0.000000 27.327437
RightHandThumb1 -24.326973 -0.000000 -32.862282
LeftUpLeg -6.845332 -2.424667 34.867038
LeftLeg 33.116084 -0.000000 -0.000000
LeftFoot -22.878265 18.598857 -24.536728
LeftToeBase -11.491937 -0.000000 0.000000
RightUpLeg -137.775447 -48.564029 19.607271
RightLeg 1.848703 -0.000000 -0.000000
RightFoot 41.494087 -13.465050 9.367613
RightToeBase 10.988731 -0.000000 -0.000000
375
root 2.846480 33.631247 -4.183972 4.975035 -15.940886 -41.229940
Spine 14.505109 22.560056 34.068087
Head -5.814440 -9.232427 13.563656
LeftShoulder -24.189434 38.717386 12.168750
LeftArm 59.839207 -55.052933 -93.264997
LeftForeArm 6.294850 -0.000000 19.255664
LeftHand 5.632391 -0.000000 12.719064
LeftHandThumb1 -26.253704 0.000000 33.147579
RightShoulder -9.417080 35.154420 -32.380120
RightArm 60.764101 80.106020 93.209332
RightForeArm 42.164500 -0.000000 56.701428
RightHand 0.617789 -0.000000 27.401700
RightHandThumb1 -24.326973 -0.000000 -32.862282
LeftUpLeg -7.051562 -2.286395 35.060529
LeftLeg 33.099472 -0.000000 -0.000000
LeftFoot -22.816572 18.317320 -24.714135
LeftToeBase -11.396964 -0.000000 0.000000
RightUpLeg -137.494489 -48.869284 19.503638
RightLeg 1.001424 -0.000000 -0.000000
RightFoot 41.347676 -13.622412 9.483484
RightToeBase 11.364234 -0.000000 -0.000000
376
root 2.852365 33.642328 -4.200935 5.197888 -15.907346 -41.314562
Spine 14.319732 22.684205 34.071415
Head -5.884157 -9.265697 13.581259
LeftShoulder -24.224042 38.657296 12.238337
LeftArm 60.108105 -55.297280 -93.476318
LeftForeArm 6.493236 -0.000000 19.101646
LeftHand 5.587295 -0.000000 12.823285
LeftHandThumb1 -26.253704 0.000000 33.147579
RightShoulder -9.537468 35.123079 -32.479282
RightArm 61.439670 80.030875 93.807526
RightForeArm 42.103619 -0.000000 56.987458
RightHand 0.579630 -0.000000 27.553588
RightHandThumb1 -24.326973 -0.000000 -32.862282
LeftUpLeg -7.254704 -2.100460 35.212848
LeftLeg 33.088491 -0.000000 -0.000000
LeftFoot -22.726063 17.893532 -25.140046
LeftToeBase -11.604137 -0.000000 0.000000
RightUpLeg -137.235457 -49.109704 19.406898
RightLeg 0.133199 -0.000000 -0.000000
RightFoot 41.254108 -13.893417 9.658914
RightToeBase 11.584855 -0.000000 -0.000000
377
root 2.857352 33.653483 -4.218294 5.406684 -15.894870 -41.402729
Spine 14.162350 22.809281 34.079074
Head -5.930361 -9.318754 13.564292
LeftShoulder -24.244503 38.603946 12.313962
LeftArm 60.377244 -55.559602 -93.686163
LeftForeArm 6.695222 -0.000000 18.965752
LeftHand 5.569987 -0.000000 12.680033
LeftHandThumb1 -26.253704 0.000000 33.147579
RightShoulder -9.636971 35.083085 -32.559546
RightArm 61.961600 79.951807 94.269334
RightForeArm 42.147776 -0.000000 57.261382
RightHand 0.548267 -0.000000 27.685824
RightHandThumb1 -24.326973 -0.000000 -32.862282
LeftUpLeg -7.435163 -1.891134 35.365850
LeftLeg 33.097388 -0.000000 -0.000000
LeftFoot -22.641818 17.641821 -25.205914
LeftToeBase -11.260701 -0.000000 0.000000
RightUpLeg -136.960570 -49.323099 19.311513
RightLeg -0.699171 -0.000000 0.000000
RightFoot 41.229670 -14.168765 9.755737
RightToeBase 10.881867 -0.000000 -0.000000
